<svg width="314" height="320" viewBox="0 0 314 320" fill="none" xmlns="http://www.w3.org/2000/svg">
<g clip-path="url(#clip0_133_268)">
<path d="M285.02 245.22C291.61 245.65 298.08 247.61 303.84 250.84C299.71 245.75 294.42 241.64 288.36 238.94C283.16 236.62 277.4 235.33 271.34 235.33C254.72 235.33 240.36 245.01 233.6 259.04C231.54 263.3 230.2 267.97 229.69 272.89C240.75 268.36 248.79 257.75 259.24 251.47C266.94 246.85 276.06 244.64 285.02 245.23V245.22Z" fill="#3A2328"/>
<path d="M303.84 250.83C298.08 247.6 291.61 245.65 285.02 245.21C276.06 244.62 266.94 246.83 259.24 251.45C248.78 257.73 240.75 268.34 229.69 272.87C229.54 274.29 229.46 275.73 229.46 277.19C229.46 300.32 248.21 319.07 271.34 319.07C294.47 319.07 313.22 300.32 313.22 277.19C313.22 267.19 309.69 258.02 303.84 250.82V250.83Z" fill="#432C31"/>
<path d="M19.1598 270.25C18.6198 272.9 18.3298 275.65 18.3298 278.46C18.3298 300.9 36.5198 319.09 58.9598 319.09C81.3998 319.09 99.5898 300.9 99.5898 278.46C99.5898 273.98 98.8498 269.67 97.5098 265.64L19.1598 270.25Z" fill="#432C31"/>
<path d="M58.9599 237.83C39.3299 237.83 22.9599 251.74 19.1599 270.25L97.5099 265.64C92.1399 249.49 76.9099 237.84 58.9599 237.84V237.83Z" fill="#3A2328"/>
<path d="M232.55 174.45C232.55 174.45 220.02 178.39 219.33 189.78C218.65 201.17 216.82 219.74 225.93 227.88L230.94 232.14C230.94 232.14 237.7 221.03 236.49 197.09C236.49 197.09 235.49 183.36 232.55 174.45Z" fill="#8E5E69"/>
<path d="M50.7701 183.79C58.6601 189.44 127.7 185.65 155.18 183.89C142.78 165.43 103.51 164.04 103.51 164.04H43.5601C44.1501 171.85 45.9601 180.34 50.7701 183.79Z" fill="#DD5900"/>
<path d="M50.77 183.79C45.96 180.34 44.16 171.85 43.56 164.04H42.47C39.62 164.04 37.51 166.68 38.14 169.46L42.27 187.67C42.73 189.69 44.53 191.13 46.6 191.13H55.07L156.62 186.3C156.2 185.46 155.7 184.66 155.18 183.88C127.69 185.64 58.66 189.43 50.77 183.78V183.79Z" fill="#CC5200"/>
<path d="M159.67 80.57C159.43 79.82 159.22 79.13 159.01 78.49C159.23 79.19 159.45 79.89 159.67 80.57Z" fill="#EAD1B7"/>
<path d="M160.39 82.8501C160.17 82.1601 159.93 81.3801 159.67 80.5701C159.89 81.2801 160.13 82.0401 160.39 82.8501Z" fill="#EAD1B7"/>
<path d="M158.84 77.92C158.49 76.8 158.19 75.87 157.95 75.1C158.22 75.95 158.52 76.92 158.84 77.92Z" fill="#EAD1B7"/>
<path d="M159.02 78.49L158.84 77.92C158.9 78.1 158.96 78.29 159.02 78.49Z" fill="#EAD1B7"/>
<path d="M161.13 85.2C161.03 84.87 160.87 84.37 160.67 83.73C160.82 84.2 160.97 84.69 161.13 85.2Z" fill="#EAD1B7"/>
<path d="M160.67 83.74C160.58 83.44 160.48 83.14 160.39 82.85C160.49 83.16 160.58 83.46 160.67 83.74Z" fill="#EAD1B7"/>
<path d="M161.25 85.5801C161.21 85.4501 161.17 85.3301 161.13 85.2001C161.19 85.3901 161.23 85.5301 161.25 85.5801Z" fill="#EAD1B7"/>
<path d="M157.95 75.1C157.93 75.04 157.91 74.98 157.89 74.91C157.91 74.97 157.93 75.03 157.95 75.1Z" fill="#EAD1B7"/>
<path d="M164.46 93.25C163.19 90.84 162.1 88.3 161.25 85.6C161.25 85.6 155.8 87.75 149.83 92.74C149.83 92.74 150.66 95.38 152.79 99.33C155.01 98.61 157.22 97.83 159.3 96.79C161.17 95.86 162.94 94.68 164.46 93.25Z" fill="#C69C7F"/>
<path d="M157.03 72.17C157 72.06 156.99 72.05 157.03 72.17Z" fill="#EAD1B7"/>
<path d="M220.89 134.04L219.42 130.85C218.36 128.55 215.89 127.26 213.4 127.71L205.74 129.32C205.74 129.32 177.44 117.94 164.46 93.24C162.94 94.67 161.17 95.85 159.3 96.78C157.21 97.82 155.01 98.6 152.79 99.32C158.56 110.05 173.96 130.49 208.68 134.17L210.97 134.82C213.26 136.58 211.21 140.47 211.21 140.47C211.21 140.47 217.11 139.1 220.23 136.81C221.09 136.18 221.34 135 220.89 134.03V134.04Z" fill="#DDB897"/>
<path d="M157.89 74.92C157.78 74.57 157.68 74.25 157.59 73.97C157.68 74.26 157.78 74.58 157.89 74.92Z" fill="#EAD1B7"/>
<path d="M157.4 73.36C157.27 72.93 157.16 72.59 157.09 72.37C157.15 72.58 157.26 72.9 157.4 73.36Z" fill="#EAD1B7"/>
<path d="M165.52 88.45C164.35 84.21 162.79 80.07 160.88 76.11C159.77 73.81 157.56 69.28 155.73 67.5C153.9 65.71 152.35 66.71 149.8 66.87C149.8 66.87 143.7 67.36 143.3 75.51C142.92 83.2 146.04 90.59 149.04 97.68C149.1 97.82 149.16 97.97 149.28 98.07C149.68 98.43 150.29 98.04 150.75 97.76C151.61 97.25 152.64 97.15 153.62 96.98C157.35 96.33 160.76 94.49 164.08 92.68L165.64 91.91C166.32 91.58 166.6 90.76 166.28 90.08L165.52 88.45Z" fill="#DD5900"/>
<path d="M214.5 132.59C214.5 132.59 214.89 132.97 215.22 133.72C215.37 134.09 215.53 134.55 215.61 135.05C215.65 135.31 215.69 135.55 215.7 135.84C215.7 136.1 215.72 136.35 215.7 136.62C215.67 137.18 215.57 137.72 215.38 138.21C215.2 138.7 214.9 139.11 214.6 139.4C214.3 139.7 213.97 139.83 213.75 139.91C213.52 139.98 213.39 139.97 213.39 139.97C213.39 139.97 213.91 139.75 214.32 139.14C214.76 138.55 214.98 137.56 215.03 136.59C215.05 136.35 215.04 136.07 215.05 135.82C215.05 135.58 215.03 135.34 215.02 135.11C214.99 134.64 214.95 134.2 214.86 133.83C214.71 133.08 214.51 132.59 214.51 132.59H214.5Z" fill="#C69C7F"/>
<path d="M217.29 131.5C217.29 131.5 217.71 131.84 218.16 132.52C218.37 132.86 218.61 133.29 218.75 133.79C218.9 134.29 218.95 134.87 218.89 135.42C218.85 135.93 218.73 136.51 218.56 136.98C218.4 137.47 218.15 137.89 217.9 138.22C217.66 138.56 217.37 138.77 217.18 138.9C216.98 139.03 216.85 139.06 216.85 139.06C216.85 139.06 217.26 138.71 217.58 138.02C217.75 137.69 217.88 137.26 217.99 136.81C218.09 136.34 218.18 135.89 218.21 135.35C218.33 134.39 218.1 133.41 217.81 132.69C217.53 131.97 217.28 131.5 217.28 131.5H217.29Z" fill="#C69C7F"/>
<path d="M143.01 140.33C177.6 152.12 202.99 169.1 203.05 169.16C203.05 169.16 214.03 173.57 207.72 186.02C203.52 194.3 193.88 220.7 188.76 228.44H171.83C177.29 208.66 180.08 190.45 198.58 177.47C181.31 178.08 162.02 173.28 149.29 169.24C137.9 165.62 130.39 161.18 129.56 149.26C129.26 144.91 128.92 134.53 131.15 129.4L131.75 124.33" fill="#432C31"/>
<path d="M168.66 242.4L173.73 228.44H185.17L181.52 237.98C181.52 237.98 186.82 250.41 168.66 249.12V242.4Z" fill="#DDB897"/>
<path d="M183.54 256.38C185.43 256.6 187.3 257.01 189.19 257.29C197.69 258.52 206.57 256.76 214.01 252.49C213.94 252.4 213.87 252.31 213.79 252.22C211.39 249.99 208.07 248.67 204.79 248.04C202.68 247.64 200.49 247.46 198.49 246.67C196.04 245.7 192.66 243.88 190.71 242.11C189.25 240.77 188.88 239.68 187.68 238.1C184.2 233.53 181.42 235.66 180.91 240.79C180.4 245.91 177.49 245.57 172.88 246.26C168.27 246.94 168.66 242.41 168.66 242.41C167.93 241.59 166.51 241.77 165.73 242.54C164.95 243.31 164.69 244.46 164.64 245.56C164.57 247.02 164.8 248.5 164.54 249.94C164.34 251.07 163.85 252.11 163.29 253.12C165.66 254.41 168.24 255.3 170.9 255.72C175.07 256.38 179.33 255.91 183.52 256.39H183.54V256.38Z" fill="#DD5900"/>
<path d="M163.3 253.11C162.84 253.94 162.33 254.75 161.89 255.59C161.77 255.81 161.65 256.07 161.73 256.31C161.79 256.5 161.96 256.63 162.12 256.75C164.21 258.28 166.54 259.33 169 260.05C169.34 258.55 169.63 257.03 169.88 255.51C167.58 255.04 165.36 254.24 163.3 253.12V253.11Z" fill="#D1DADB"/>
<path d="M183.54 256.38C181.08 256.1 178.6 256.14 176.12 256.09V261.28C178.75 261.49 181.43 261.49 184.04 261.43C184.01 259.77 183.97 258.11 183.94 256.45C183.81 256.43 183.67 256.4 183.54 256.39V256.38Z" fill="#D1DADB"/>
<path d="M170.91 255.71C170.56 255.66 170.22 255.57 169.88 255.5C169.63 257.02 169.34 258.54 169 260.04C171.29 260.71 173.69 261.08 176.13 261.28V256.09C174.38 256.06 172.64 255.98 170.92 255.71H170.91Z" fill="white"/>
<path d="M191.13 257.48C191.16 258.71 191.17 259.94 191.16 261.17C193.02 261.09 194.87 261 196.73 260.91C197.46 260.87 198.19 260.84 198.93 260.8C198.82 259.69 198.7 258.57 198.59 257.46C196.11 257.72 193.61 257.72 191.13 257.49V257.48Z" fill="#D1DADB"/>
<path d="M191.13 257.48C190.48 257.42 189.83 257.38 189.19 257.28C187.44 257.03 185.7 256.66 183.95 256.43C183.98 258.09 184.02 259.75 184.05 261.41C184.43 261.41 184.81 261.39 185.19 261.38C187.18 261.32 189.17 261.24 191.17 261.16C191.17 259.93 191.17 258.7 191.14 257.47H191.13V257.48Z" fill="white"/>
<path d="M214 252.49C211.44 253.96 208.69 255.11 205.86 255.97C206.33 257.17 206.71 258.39 207.05 259.63C209.18 259.03 211.23 258.17 213.14 257.06C214.79 256.1 215.19 253.9 213.99 252.49H214Z" fill="#D1DADB"/>
<path d="M198.59 257.45C198.7 258.56 198.82 259.68 198.93 260.79C201.01 260.67 203.09 260.51 205.13 260.09C205.78 259.96 206.42 259.8 207.06 259.62C206.72 258.38 206.33 257.16 205.87 255.96C203.5 256.68 201.06 257.19 198.59 257.44V257.45Z" fill="white"/>
<path d="M85.3369 284.283C88.5402 269.714 79.3263 255.307 64.757 252.103C50.1878 248.9 35.7804 258.114 32.5771 272.683C29.3738 287.253 38.5878 301.66 53.157 304.863C67.7263 308.066 82.1337 298.853 85.3369 284.283Z" fill="white"/>
<path d="M69.37 281.18C76.41 281.67 83.71 280.9 90.18 277.93C97.21 274.71 100.49 269.23 104.39 262.73C105.91 260.2 102.99 258.03 101.48 260.55C97.89 266.53 93.81 271.62 87.17 274.26C81.44 276.54 75.26 277.03 69.16 276.6C66.23 276.4 66.46 280.97 69.36 281.17L69.37 281.18Z" fill="#8E5E69"/>
<path d="M58.96 290.16C65.4217 290.16 70.66 284.922 70.66 278.46C70.66 271.998 65.4217 266.76 58.96 266.76C52.4983 266.76 47.26 271.998 47.26 278.46C47.26 284.922 52.4983 290.16 58.96 290.16Z" fill="#774C56"/>
<path d="M58.9599 284.77C62.4448 284.77 65.2699 281.945 65.2699 278.46C65.2699 274.975 62.4448 272.15 58.9599 272.15C55.475 272.15 52.6499 274.975 52.6499 278.46C52.6499 281.945 55.475 284.77 58.9599 284.77Z" fill="#8E5E69"/>
<path d="M271.34 302.85C285.501 302.85 296.98 291.371 296.98 277.21C296.98 263.049 285.501 251.57 271.34 251.57C257.179 251.57 245.7 263.049 245.7 277.21C245.7 291.371 257.179 302.85 271.34 302.85Z" fill="white"/>
<path d="M271.36 288.32C277.496 288.32 282.47 283.346 282.47 277.21C282.47 271.074 277.496 266.1 271.36 266.1C265.224 266.1 260.25 271.074 260.25 277.21C260.25 283.346 265.224 288.32 271.36 288.32Z" fill="#774C56"/>
<path d="M270.8 225.72L237.17 242.13L245.44 212.14L234.12 150.15C234.12 150.15 242.35 171.48 251.97 188.41C258.45 199.82 263.27 212.32 275.38 218.36C277.67 219.5 280.4 220.88 281.24 224L270.79 225.72H270.8Z" fill="#634048"/>
<path d="M225.93 227.88L230.94 232.14C230.94 232.14 226.39 259.73 204.98 269.62H111.88C113.23 268.29 114.49 266.88 115.63 265.37L117.53 263.57L116.89 263.6C118.12 261.76 119.17 259.79 120 257.69C125.8 243.06 118.88 225.02 106.56 216.12C94.24 207.22 77.98 206.38 63.63 210.55C38.11 217.96 17.23 241.09 10.94 268.49L2.92997 268.86C1.18997 268.94 0.0399684 267.06 0.919968 265.56C6.55997 255.97 8.46997 244.32 14.04 234.57C21.92 220.78 36.18 212.18 48.85 202.6C49.21 202.33 49.58 202.04 49.74 201.62C50.01 200.91 49.59 200.15 49.31 199.44C47.84 195.74 51.09 191.06 55.07 191.14L156.62 186.31C158.86 186.2 160.69 188.19 160.28 190.51C160.08 191.63 159.29 192.55 158.28 193.08C150.04 197.45 120.62 215.54 137.56 243.52C153.77 270.29 192.48 260.25 209.8 251.45C209.8 251.45 219.54 245.25 225.92 227.87" fill="#634048"/>
<path d="M230.94 232.14C230.94 232.14 244.34 196.16 224.56 153.8L234.12 150.16C234.12 150.16 266 209.89 225.92 259.93C225.92 259.93 222.28 267.48 202.69 269.63C202.69 269.63 220.91 262.67 230.93 232.15H230.94V232.14Z" fill="#432C31"/>
<path d="M220.15 273.06C219.51 273.2 218.94 272.59 219.15 271.96C221.42 264.94 232.65 233.51 254.18 224.39C279.46 213.69 300.64 231.71 308.58 244.81C309.46 246.27 307.96 247.96 306.16 247.57C297.26 245.62 278.14 237.37 258.3 249.22C244.05 257.73 238.51 268.98 220.16 273.06H220.15Z" fill="#744B54"/>
<path d="M113.96 154.99C114.2 166.94 122.7 172.16 134.09 175.78C146.82 179.83 166.11 184.62 183.38 184.01C164.88 196.99 162.08 215.21 156.63 234.98H173.56C178.68 227.23 196.18 196.97 200.38 188.69C206.69 176.24 195.71 171.83 195.71 171.83C195.65 171.77 191.76 168.76 164.23 154.62L158.25 152.35L146.51 154.74L154.92 150.64L156.17 144.96L118.91 132.58C118.91 132.58 113.77 144.88 113.97 154.98L113.96 154.99Z" fill="#774C56"/>
<path d="M153.45 248.95L158.52 234.99H169.96L166.31 244.53C166.31 244.53 171.61 256.96 153.45 255.67V248.95Z" fill="#EAD1B7"/>
<path d="M168.33 262.93C170.22 263.15 172.09 263.56 173.98 263.84C182.48 265.07 191.36 263.31 198.8 259.04C198.73 258.95 198.66 258.86 198.58 258.77C196.18 256.54 192.86 255.22 189.58 254.59C187.47 254.19 185.28 254.01 183.28 253.22C180.83 252.25 177.45 250.43 175.5 248.66C174.04 247.32 173.67 246.23 172.47 244.65C168.99 240.08 166.21 242.21 165.7 247.34C165.19 252.47 162.28 252.12 157.67 252.81C153.06 253.5 153.45 248.96 153.45 248.96C152.72 248.14 151.3 248.32 150.52 249.09C149.74 249.86 149.48 251.01 149.43 252.11C149.36 253.57 149.59 255.05 149.33 256.49C149.13 257.62 148.64 258.66 148.08 259.67C150.45 260.96 153.03 261.85 155.69 262.27C159.86 262.93 164.12 262.46 168.31 262.94H168.33V262.93Z" fill="#EF8E2E"/>
<path d="M148.09 259.65C147.63 260.48 147.12 261.29 146.68 262.13C146.56 262.35 146.44 262.61 146.52 262.85C146.58 263.04 146.75 263.17 146.91 263.29C149 264.82 151.33 265.87 153.79 266.59C154.13 265.09 154.42 263.57 154.67 262.05C152.37 261.58 150.15 260.78 148.09 259.66V259.65Z" fill="#D1DADB"/>
<path d="M168.33 262.93C165.87 262.65 163.39 262.69 160.91 262.64V267.83C163.54 268.04 166.22 268.04 168.83 267.98C168.8 266.32 168.76 264.66 168.73 263C168.6 262.98 168.46 262.95 168.33 262.94V262.93Z" fill="#D1DADB"/>
<path d="M155.71 262.26C155.36 262.21 155.02 262.12 154.68 262.05C154.43 263.57 154.14 265.09 153.8 266.59C156.09 267.26 158.49 267.63 160.93 267.83V262.64C159.18 262.61 157.44 262.53 155.72 262.26H155.71Z" fill="white"/>
<path d="M175.92 264.03C175.95 265.26 175.96 266.49 175.95 267.72C177.81 267.64 179.66 267.55 181.52 267.46C182.25 267.42 182.98 267.39 183.72 267.35C183.61 266.24 183.49 265.12 183.38 264.01C180.9 264.27 178.4 264.27 175.92 264.04V264.03Z" fill="#D1DADB"/>
<path d="M175.92 264.03C175.27 263.97 174.62 263.93 173.98 263.83C172.23 263.58 170.49 263.21 168.74 262.98C168.77 264.64 168.81 266.3 168.84 267.96C169.22 267.96 169.6 267.94 169.98 267.93C171.97 267.87 173.96 267.79 175.96 267.71C175.96 266.48 175.96 265.25 175.93 264.02H175.92V264.03Z" fill="white"/>
<path d="M198.8 259.03C196.24 260.5 193.49 261.65 190.66 262.51C191.13 263.71 191.51 264.93 191.85 266.17C193.98 265.57 196.03 264.71 197.94 263.6C199.59 262.64 199.99 260.44 198.79 259.03H198.8Z" fill="#D1DADB"/>
<path d="M183.38 264C183.49 265.11 183.61 266.23 183.72 267.34C185.8 267.22 187.88 267.06 189.92 266.64C190.57 266.51 191.21 266.35 191.85 266.17C191.51 264.93 191.12 263.71 190.66 262.51C188.29 263.23 185.85 263.74 183.38 263.99V264Z" fill="white"/>
<path d="M17.4899 219.21C17.3299 219.2 17.1799 219.2 17.0199 219.19C10.9299 227.96 6.29987 237.74 3.36987 248C5.40987 249.54 7.93987 250.34 8.44987 248.49C12.7699 232.74 26.8399 219.31 26.8399 219.31C23.9999 219.97 20.3999 219.4 17.4899 219.2V219.21Z" fill="#774C56"/>
<path d="M8.83001 233.43C11.15 228.46 13.89 223.69 17.02 219.19C14.24 219.06 11.27 219.44 9.27001 221.34C7.94001 222.61 7.23001 224.39 6.56001 226.11C5.79001 228.09 5.03001 230.07 4.26001 232.04C4.27001 232.04 4.29001 232.04 4.30001 232.05C5.80001 232.55 7.31001 232.99 8.83001 233.42V233.43Z" fill="#DD5900"/>
<path d="M4.29993 232.06C4.29993 232.06 4.26993 232.06 4.25993 232.05C3.35993 234.37 2.45993 236.69 1.55993 239.01C0.809928 240.94 0.0599278 243.09 0.809928 245.02C1.19993 246.03 2.19993 247.14 3.35993 248.01C4.78993 243.02 6.61993 238.14 8.81993 233.44C7.29993 233.01 5.78993 232.57 4.28993 232.07L4.29993 232.06Z" fill="#EF8E2E"/>
<path d="M290.47 260.12L274.38 280.96C274.19 281.26 273.98 281.55 273.73 281.8C272.89 282.64 271.73 283.16 270.44 283.16C267.87 283.16 265.79 281.08 265.79 278.51C265.79 277.06 266.47 275.78 267.51 274.93V274.91L287.04 256.92C287.04 256.92 289.11 258.35 290.47 260.11V260.12Z" fill="#8E5E69"/>
<path d="M153.15 63.2901L135.14 56.4501C135.14 56.4501 126.41 60.5901 124.36 82.2701C124.36 82.2701 122.88 84.0401 123.96 88.6301C123.96 88.6301 122.54 89.7901 122.54 92.9901C122.54 96.1901 122.54 92.9901 120.72 106.43C120.72 106.43 119.35 123.47 118.21 126.68C117.07 129.89 115.78 129.66 115.78 132.5C115.78 136.82 156.16 144.97 156.16 144.97C158.14 116.39 159.82 108.62 160.03 98.2101C160.15 92.1801 159.1 75.5601 156.01 65.8301" fill="#EF8E2E"/>
<path d="M153.15 63.29L152.38 69.76L133.37 55.07C133.37 55.07 133.26 49.22 141.11 49.7L140.25 52.68L153.15 63.29Z" fill="white"/>
<path d="M211.81 268.48H109.79C109.033 268.48 108.42 269.093 108.42 269.85V270.84C108.42 271.597 109.033 272.21 109.79 272.21H211.81C212.567 272.21 213.18 271.597 213.18 270.84V269.85C213.18 269.093 212.567 268.48 211.81 268.48Z" fill="#774C56"/>
<path d="M140.24 52.68L138.69 51.43C138.69 51.43 139.22 51.02 140.73 51L140.24 52.68Z" fill="#E1E5E5"/>
<path d="M153.15 63.2901L156.99 69.1301V67.5301C156.99 66.6801 156.87 65.8301 156.64 65.0201C156.41 64.2101 156.01 63.4701 155.51 62.7901L153.91 60.5801L153.15 63.2801V63.2901Z" fill="white"/>
<path d="M243.4 115.92C240.18 116.57 236.69 117.94 234.13 120.78C228.88 126.62 223.88 127.38 219.78 129.66C219.74 129.68 219.7 129.71 219.66 129.73C217.19 131.16 216.27 134.28 217.38 136.9L224.56 153.8L234.12 150.16C234.12 150.16 229.57 142.42 229.57 137.63C229.57 135.08 234.52 136.96 236.13 137.63C236.52 137.79 236.92 137.96 237.32 138.1C239.88 139.02 241.86 139.47 244.34 139.67C241.52 129.06 242.38 120.65 243.39 115.91H243.4V115.92Z" fill="#634048"/>
<path d="M144.23 42.91C144.32 44.67 144.08 46.79 142.95 48.14C142.4 47.81 142.95 48.14 141.7 46.2C141.29 46.56 140.89 46.91 140.48 47.27C140.4 46.73 140.32 46.2 140.24 45.66C139.74 45.93 139.23 46.2 138.73 46.47C139.07 43.18 138.47 39.79 137 36.82L139.87 35.54L144.23 42.91Z" fill="#432C31"/>
<path d="M152.01 20.3701C151.92 20.4201 151.87 20.4601 151.87 20.4601C151.91 20.4301 151.96 20.4001 152.01 20.3701Z" fill="#634048"/>
<path d="M174.09 19.64C169.63 12.78 164.18 13.79 160.49 14.6C161.46 14.46 162.46 14.6 163.45 14.76C169.76 15.76 170.08 21.39 170.08 21.39C170.08 21.39 172.57 21.21 174.09 19.64Z" fill="#774C56"/>
<path d="M140.24 52.68C140.24 52.68 147.58 58.71 153.14 63.29L153.37 62.47L140.63 51.34L140.24 52.68Z" fill="#DDB897"/>
<path d="M156.98 49.57C156.98 49.57 150.2 49.91 142.66 44.64L142.24 45.8L140.63 51.35L153.37 62.48L156.77 50.35L156.98 49.58V49.57Z" fill="#EAD1B7"/>
<path d="M137.14 24.2001C137.14 24.2001 136.66 42.7101 145.23 46.6001C153.8 50.5001 155.8 51.2801 162.21 49.5201C168.61 47.7701 168.81 36.4701 169.58 27.5101C170.36 18.5501 167.33 5.89006 153.36 6.08006C153.36 6.08006 139.37 4.13006 137.14 24.2001Z" fill="#EAD1B7"/>
<path d="M160.06 30.5C160 30.5 159.94 30.47 159.87 30.46C157.53 30.16 155.45 31.83 153.18 32.48C150.07 33.37 146.66 32.26 144.06 30.34C141.46 28.41 139.52 25.75 137.62 23.13L137.94 29.7C137.94 29.7 139.82 27.44 140.14 41.02C140.17 42.47 141.19 43.71 142.43 44.74C141.68 44.15 150.32 50.54 158.91 50.38C161.73 40.11 161.2 33.99 160.06 30.5Z" fill="#8E5E69"/>
<path d="M169.36 31.03C167.32 32 164.96 32.14 162.82 31.42C161.9 31.11 161.01 30.65 160.05 30.49C161.19 33.97 161.73 40.09 158.9 50.37C160.01 50.35 161.11 50.23 162.2 49.97C169.69 48.12 169.35 31.03 169.35 31.03H169.36Z" fill="#744B54"/>
<path d="M137.14 28.05C137.14 28.05 131.41 20.96 131.02 28.05C130.63 35.14 137.75 39.47 138.77 36.65L137.14 28.05Z" fill="#EAD1B7"/>
<path d="M135 25.7101C134.62 26.8501 135.59 28.0101 136.22 29.0301C137.68 31.4101 139.1 34.1201 140.01 36.7501C140.43 34.4301 140.01 31.8201 139.23 29.5901C139.85 29.9201 140.35 30.4701 140.62 31.1101C141.55 29.1701 140.12 26.7501 140.9 24.7401C141.54 23.0801 143.43 22.3201 144.66 21.0301C145.46 20.2001 145.99 19.1201 146.16 17.9801C146.16 17.9801 137.53 18.0701 135.01 25.7001L135 25.7101Z" fill="#432C31"/>
<path d="M152.38 16.72C154.38 17.21 156.27 18.15 157.87 19.45C158.16 19.04 158.32 18.53 158.31 18.03C159.75 19.57 161.66 20.66 163.71 21.12C163.28 20.69 163.03 20.1 163.02 19.49C165.34 20.84 169.12 24.77 171.8 24.9C170.9 15.45 166.89 13.8 163.32 11.96C159.75 10.12 155.86 10.31 151.87 10.73" fill="#432C31"/>
<path d="M139.55 3.75006C129.19 11.3501 131.94 25.3001 131.94 25.3001C133.83 24.4401 134.89 26.0101 134.89 26.0101C140.98 15.4401 150.29 12.4601 157.56 12.0401C156.22 6.80006 154.55 2.91006 153.01 0.110055C148.45 -0.369945 143.63 0.760055 139.56 3.75006H139.55Z" fill="#EF8E2E"/>
<path d="M168.42 13.1001C166.41 5.42011 160.03 0.850107 153 0.110107C154.54 2.91011 156.21 6.79011 157.55 12.0401C163.72 11.6901 168.42 13.1001 168.42 13.1001Z" fill="#DD5900"/>
<path d="M174.09 19.64C176.13 16.66 168.42 13.1 168.42 13.1C146.21 6.67001 137.14 22.51 137.14 22.51C141.08 23.94 148.89 19.14 153.04 16.27C153.04 16.27 153.1 16.23 153.2 16.17C154.83 15.08 156.67 14.34 158.58 14.06C162.79 13.14 168.75 13.46 174.09 19.64Z" fill="white"/>
<path d="M131.93 28.2901C131.93 28.2901 131.96 28.1401 132.09 27.9101C132.16 27.8001 132.25 27.6601 132.39 27.5201C132.53 27.3901 132.73 27.2501 133 27.2101C133.27 27.1801 133.56 27.2501 133.82 27.4001C134.07 27.5501 134.3 27.7401 134.49 27.9701C134.88 28.4201 135.17 28.9501 135.43 29.5001C136.43 31.6901 136.57 34.0701 136.57 34.0701C136.57 34.0701 136.3 33.5401 135.99 32.7201C135.85 32.3101 135.62 31.8501 135.43 31.3401C135.34 31.0801 135.22 30.8401 135.11 30.5701C135 30.3101 134.91 30.0401 134.77 29.7901C134.65 29.5401 134.54 29.2701 134.41 29.0301C134.26 28.8101 134.16 28.5401 134 28.3601C133.85 28.1501 133.71 27.9701 133.54 27.8301C133.38 27.7001 133.21 27.6201 133.04 27.6101C132.87 27.6101 132.71 27.6601 132.56 27.7301C132.42 27.8101 132.3 27.9001 132.21 27.9901C132.03 28.1601 131.94 28.2801 131.94 28.2801L131.93 28.2901Z" fill="#DDB897"/>
<path d="M135.83 31.3601C135.83 31.3601 135.64 31.5001 135.45 31.7201C135.26 31.9401 135.09 32.2401 134.94 32.5701C134.79 32.9001 134.65 33.2601 134.53 33.5501C134.42 33.8401 134.3 34.0501 134.3 34.0501C134.3 34.0501 134.27 34.0001 134.24 33.9001C134.22 33.8101 134.14 33.6701 134.13 33.5001C134.08 33.1701 134.08 32.7001 134.29 32.2601C134.48 31.8101 134.9 31.4801 135.24 31.3701C135.59 31.2601 135.83 31.3701 135.83 31.3701V31.3601Z" fill="#DDB897"/>
<path d="M249.83 116.16C248.24 115.75 245.91 115.41 243.39 115.91C242.38 120.65 241.53 129.06 244.34 139.67C246.83 139.87 249.16 139.82 250.55 139.75C246.79 131.67 248.87 120.27 249.82 116.15H249.83V116.16Z" fill="#774C56"/>
<path d="M251.99 139.46C249.08 129.89 250.31 122.55 251.91 116.88V116.85C251.91 116.85 251.11 116.48 249.84 116.16C248.89 120.28 246.8 131.68 250.57 139.76C251.4 139.72 251.9 139.68 251.9 139.68C251.93 139.61 251.96 139.54 251.99 139.46Z" fill="#432C31"/>
<path d="M252.54 118.23C252.2 117.42 251.94 116.94 251.91 116.88C250.31 122.55 249.07 129.89 251.99 139.46C252.18 139.04 252.33 138.64 252.5 138.23C250.05 128.88 251.69 121.2 252.55 118.23H252.54Z" fill="#DD5900"/>
<path d="M252.54 118.23C251.68 121.2 250.04 128.88 252.49 138.23C256.25 128.99 253.82 121.24 252.54 118.23Z" fill="#EF8E2E"/>
<path d="M103.99 85.17C103.99 82.95 102.19 81.15 99.9699 81.15H25.1199C22.8999 81.15 21.0999 82.95 21.0999 85.17V101.27H103.99V85.17Z" fill="#DD5900"/>
<path d="M21.0999 101.27V160.03C21.0999 162.25 22.8999 164.05 25.1199 164.05H99.9699C102.19 164.05 103.99 162.25 103.99 160.03V101.27H21.0999Z" fill="#EF8E2E"/>
<path d="M50.7799 95.22H46.1399V107.65H50.7799V95.22Z" fill="#432C31"/>
<path d="M78.9498 95.22H74.3098V107.65H78.9498V95.22Z" fill="#432C31"/>
<path d="M69.7698 159.63H70.5198C71.0798 159.63 71.5398 160.09 71.5398 160.65V164.05H68.7598V160.65C68.7598 160.09 69.2198 159.63 69.7798 159.63H69.7698Z" fill="#432C31"/>
<path d="M20.1399 127.1C19.7799 126.24 19.2299 124.23 19.7899 123.49C19.9999 123.22 20.4099 123.12 21.0099 123.2C21.0399 123.2 21.0599 123.2 21.0899 123.2V121.93C19.8099 121.79 19.1199 122.27 18.7799 122.71C17.6299 124.23 18.8299 127.23 18.9799 127.6C26.8199 143.65 47.1499 156.35 74.0899 164.06L76.4299 164.03C49.8599 156.43 27.7799 142.76 20.1199 127.09H20.1399V127.1Z" fill="#432C31"/>
<path d="M56.3398 164.05H53.5598V160.65C53.5598 160.09 54.0198 159.63 54.5798 159.63H55.3298C55.8898 159.63 56.3498 160.09 56.3498 160.65V164.05H56.3398Z" fill="#432C31"/>
<path d="M104.94 127.1C105.3 126.24 105.85 124.23 105.29 123.49C105.08 123.22 104.67 123.12 104.07 123.2C104.04 123.2 104.02 123.2 103.99 123.2V121.93C105.27 121.79 105.96 122.27 106.3 122.71C107.45 124.23 106.25 127.23 106.1 127.6C98.2599 143.65 77.9299 156.35 50.9899 164.06L48.6499 164.03C75.2199 156.43 97.2999 142.76 104.96 127.09H104.94V127.1Z" fill="#432C31"/>
<path d="M8.04004 268.64L13.48 268.36C23.5 214.05 80.75 208.13 80.75 208.13C25.8 209.02 11.12 255.38 8.04004 268.64Z" fill="#774C56"/>
<path d="M106.57 216.11C94.2499 207.21 77.9899 206.37 63.6399 210.54C47.5499 215.21 33.3199 226.13 23.4099 240.42C34.1099 238.19 65.5599 232.21 93.3999 232.59C93.3999 232.59 109.34 232.13 102.51 246.25C99.3399 252.81 95.5699 259.47 92.4499 264.72L116.9 263.59C118.13 261.75 119.18 259.78 120.01 257.68C125.81 243.05 118.89 225.01 106.57 216.11Z" fill="#744B54"/>
<path d="M93.3899 232.59C65.5499 232.22 34.0999 238.2 23.3999 240.42C17.5899 248.8 13.2599 258.35 10.9399 268.48L92.4399 264.72C95.5599 259.47 99.3199 252.81 102.5 246.25C109.33 232.13 93.3899 232.59 93.3899 232.59Z" fill="#8E5E69"/>
<path d="M40.6699 244.95C40.6699 244.95 41.3499 244.81 42.5399 244.61C43.7299 244.43 45.4299 244.12 47.4899 243.88C49.5399 243.63 51.9399 243.32 54.5099 243.09C57.0799 242.85 59.8399 242.65 62.5899 242.49C63.9699 242.43 65.3499 242.37 66.6999 242.31C68.0599 242.24 69.3899 242.24 70.6899 242.21C73.2799 242.16 75.6899 242.21 77.7599 242.24C79.8299 242.26 81.5499 242.38 82.7599 242.44C83.9699 242.52 84.6499 242.56 84.6499 242.56C84.6499 242.56 83.9599 242.61 82.7599 242.7C81.5599 242.77 79.8399 242.88 77.7799 243.01C73.6599 243.24 68.1699 243.55 62.6799 243.86C57.1899 244.14 51.6899 244.43 47.5699 244.64C45.5099 244.73 43.7899 244.81 42.5799 244.87C41.3699 244.92 40.6799 244.94 40.6799 244.94H40.6699V244.95Z" fill="#432C31"/>
<path d="M40.5898 249.19C40.5898 249.19 41.2698 249.05 42.4598 248.85C43.6498 248.67 45.3498 248.36 47.4098 248.12C49.4598 247.87 51.8598 247.56 54.4298 247.33C56.9998 247.09 59.7598 246.89 62.5098 246.73C63.8898 246.67 65.2698 246.61 66.6198 246.55C67.9798 246.48 69.3098 246.48 70.6098 246.45C73.1998 246.4 75.6098 246.45 77.6798 246.48C79.7498 246.5 81.4698 246.62 82.6798 246.68C83.8898 246.76 84.5698 246.8 84.5698 246.8C84.5698 246.8 83.8798 246.85 82.6798 246.94C81.4798 247.01 79.7598 247.12 77.6998 247.25C73.5798 247.48 68.0898 247.79 62.5998 248.1C57.1098 248.38 51.6098 248.67 47.4898 248.88C45.4298 248.97 43.7098 249.05 42.4998 249.11C41.2898 249.16 40.5998 249.18 40.5998 249.18H40.5898V249.19Z" fill="#432C31"/>
<path d="M40.5 253.68C40.5 253.68 41.18 253.54 42.37 253.34C43.56 253.16 45.26 252.85 47.32 252.61C49.37 252.36 51.77 252.05 54.34 251.82C56.91 251.58 59.67 251.38 62.42 251.22C63.8 251.16 65.18 251.1 66.53 251.04C67.89 250.97 69.22 250.97 70.52 250.94C73.11 250.89 75.52 250.94 77.59 250.97C79.66 250.99 81.38 251.11 82.59 251.17C83.8 251.25 84.48 251.29 84.48 251.29C84.48 251.29 83.79 251.34 82.59 251.43C81.39 251.5 79.67 251.61 77.61 251.74C73.49 251.97 68 252.28 62.51 252.59C57.02 252.87 51.52 253.16 47.4 253.37C45.34 253.46 43.62 253.54 42.41 253.6C41.2 253.65 40.51 253.67 40.51 253.67H40.5V253.68Z" fill="#432C31"/>
<path d="M40.3999 258.86C40.3999 258.86 41.0799 258.72 42.2699 258.52C43.4599 258.34 45.1599 258.03 47.2199 257.79C49.2699 257.54 51.6699 257.23 54.2399 257C56.8099 256.76 59.5699 256.56 62.3199 256.4C63.6999 256.34 65.0799 256.28 66.4299 256.22C67.7899 256.15 69.1199 256.15 70.4199 256.12C73.0099 256.07 75.4199 256.12 77.4899 256.15C79.5599 256.17 81.2799 256.29 82.4899 256.35C83.6999 256.43 84.3799 256.47 84.3799 256.47C84.3799 256.47 83.6899 256.52 82.4899 256.61C81.2899 256.68 79.5699 256.79 77.5099 256.92C73.3899 257.15 67.8999 257.46 62.4099 257.77C56.9199 258.05 51.4199 258.34 47.2999 258.55C45.2399 258.64 43.5199 258.72 42.3099 258.78C41.0999 258.83 40.4099 258.85 40.4099 258.85H40.3999V258.86Z" fill="#432C31"/>
<path d="M219.17 138.93L198.42 143.43C195.71 144.08 193.09 141.86 193.44 139.09C193.44 139.06 193.44 139.02 193.45 138.99C193.71 137.16 195.27 135.78 197.12 135.64L217.29 134.39C217.29 134.39 219.61 134.14 220.35 134.86C221.09 135.58 222.03 137.85 219.17 138.94V138.93Z" fill="#774C56"/>
<path d="M147.35 81.17C147.15 80.4 146.97 79.69 146.8 79.04C146.99 79.76 147.17 80.48 147.35 81.17Z" fill="#EAD1B7"/>
<path d="M147.96 83.5C147.78 82.79 147.57 82 147.36 81.17C147.55 81.89 147.75 82.67 147.96 83.5Z" fill="#EAD1B7"/>
<path d="M146.65 78.4601C146.35 77.3201 146.11 76.3601 145.9 75.5701C146.13 76.4401 146.38 77.4401 146.65 78.4601Z" fill="#EAD1B7"/>
<path d="M146.8 79.0401C146.75 78.8501 146.7 78.6501 146.65 78.4601C146.7 78.6501 146.75 78.8401 146.8 79.0401Z" fill="#EAD1B7"/>
<path d="M148.58 85.91C148.49 85.58 148.36 85.06 148.19 84.41C148.32 84.89 148.44 85.39 148.58 85.91Z" fill="#EAD1B7"/>
<path d="M148.19 84.41C148.11 84.1 148.03 83.8 147.96 83.5C148.04 83.82 148.12 84.13 148.19 84.41Z" fill="#EAD1B7"/>
<path d="M148.68 86.3C148.65 86.17 148.61 86.05 148.58 85.92C148.63 86.12 148.67 86.25 148.68 86.3Z" fill="#EAD1B7"/>
<path d="M145.51 74.08C145.48 73.98 145.46 73.88 145.43 73.78C145.45 73.87 145.48 73.97 145.51 74.08Z" fill="#EAD1B7"/>
<path d="M151.52 94.2001C150.37 91.7101 149.4 89.0901 148.69 86.3201C148.69 86.3201 143.09 88.2001 136.81 92.9201C136.81 92.9201 137.51 95.6301 139.45 99.7101C141.73 99.1001 143.99 98.4301 146.14 97.4901C148.07 96.6501 149.92 95.5501 151.52 94.1901V94.2001Z" fill="#DDB897"/>
<path d="M145.17 72.7501C145.15 72.6801 145.14 72.6201 145.12 72.5701C145.12 72.6101 145.15 72.6701 145.17 72.7501Z" fill="#EAD1B7"/>
<path d="M145.12 72.5701C145.09 72.4601 145.09 72.4501 145.12 72.5701Z" fill="#EAD1B7"/>
<path d="M210.83 136.7L209.53 133.44C208.58 131.07 206.16 129.64 203.63 129.97L195.4 131.02C195.4 131.02 163.33 119.76 151.53 94.2001C149.93 95.5601 148.08 96.6601 146.15 97.5001C143.99 98.4401 141.73 99.1101 139.46 99.7201C144.72 110.83 159.04 132.22 193.83 137.72C193.83 137.72 196.88 133.73 200.82 137.01C203.06 138.88 200.74 143.15 200.74 143.15C200.74 143.15 206.8 144.03 210.53 139.14C211.06 138.45 211.17 137.51 210.84 136.7H210.83Z" fill="#EAD1B7"/>
<path d="M145.6 74.4101C145.57 74.3001 145.54 74.1901 145.52 74.0801C145.55 74.1801 145.57 74.2901 145.6 74.4101Z" fill="#EAD1B7"/>
<path d="M145.85 75.38C145.76 75.02 145.67 74.69 145.6 74.41C145.68 74.71 145.76 75.04 145.85 75.38Z" fill="#EAD1B7"/>
<path d="M145.44 73.79C145.33 73.35 145.24 73 145.18 72.78C145.23 72.99 145.32 73.32 145.44 73.79Z" fill="#EAD1B7"/>
<path d="M152.83 89.4101C151.87 85.0801 150.51 80.8301 148.79 76.7401C147.79 74.3601 146.64 72.0001 144.89 70.1001C143.14 68.2001 140.69 66.8201 138.11 66.8601C138.11 66.8601 131.94 67.0401 131.11 75.2301C130.33 82.9601 133.09 90.5601 135.75 97.8601C135.8 98.0101 135.86 98.1601 135.97 98.2701C136.36 98.6601 136.99 98.2901 137.47 98.0401C138.36 97.5701 139.4 97.5201 140.41 97.4001C144.2 96.9401 147.73 95.2601 151.17 93.6001L152.78 92.9101C153.48 92.6101 153.81 91.8101 153.52 91.1001L152.84 89.4201H152.83V89.4101Z" fill="#DD5900"/>
<path d="M204.08 135.78C204.08 135.78 204.47 136.16 204.8 136.91C204.95 137.28 205.11 137.74 205.19 138.24C205.23 138.5 205.27 138.74 205.28 139.03C205.28 139.29 205.3 139.54 205.28 139.81C205.25 140.37 205.15 140.91 204.96 141.4C204.78 141.89 204.48 142.3 204.18 142.59C203.88 142.89 203.55 143.02 203.33 143.1C203.1 143.17 202.97 143.16 202.97 143.16C202.97 143.16 203.49 142.94 203.9 142.33C204.34 141.74 204.56 140.75 204.61 139.78C204.63 139.54 204.62 139.26 204.63 139.01C204.63 138.77 204.61 138.53 204.6 138.3C204.57 137.83 204.53 137.39 204.44 137.02C204.29 136.27 204.09 135.78 204.09 135.78H204.08Z" fill="#DDB897"/>
<path d="M206.86 134.69C206.86 134.69 207.28 135.03 207.73 135.71C207.94 136.05 208.18 136.48 208.32 136.98C208.47 137.48 208.52 138.06 208.46 138.61C208.42 139.12 208.3 139.7 208.13 140.17C207.97 140.66 207.72 141.08 207.47 141.41C207.23 141.75 206.94 141.96 206.75 142.09C206.55 142.22 206.42 142.25 206.42 142.25C206.42 142.25 206.83 141.9 207.15 141.21C207.32 140.88 207.45 140.45 207.56 140C207.66 139.53 207.75 139.08 207.79 138.54C207.91 137.58 207.68 136.6 207.39 135.88C207.11 135.16 206.86 134.69 206.86 134.69Z" fill="#DDB897"/>
<path d="M223.66 152.94L234.13 149.07L234.7 150.49L224.43 154.37L223.66 152.94Z" fill="#8E5E69"/>
</g>
<defs>
<clipPath id="clip0_133_268">
<rect width="312.72" height="319.09" fill="white" transform="translate(0.5)"/>
</clipPath>
</defs>
</svg>
