<svg width="22" height="19" viewBox="0 0 22 19" fill="none" xmlns="http://www.w3.org/2000/svg">
<path d="M0 2.96875V4.75C0 5.40684 0.546181 5.9375 1.22222 5.9375H1.83333H3.66667V2.96875C3.66667 1.98535 2.84549 1.1875 1.83333 1.1875C0.821181 1.1875 0 1.98535 0 2.96875ZM4.27778 1.1875C4.65972 1.68477 4.88889 2.30078 4.88889 2.96875V14.25C4.88889 15.56 5.98507 16.625 7.33333 16.625C8.6816 16.625 9.77778 15.56 9.77778 14.25V14.0533C9.77778 12.851 10.7823 11.875 12.0198 11.875H18.3333V4.75C18.3333 2.7832 16.691 1.1875 14.6667 1.1875H4.27778ZM17.7222 17.8125C20.0865 17.8125 22 15.9533 22 13.6562C22 13.3297 21.725 13.0625 21.3889 13.0625H12.0198C11.4583 13.0625 11 13.5041 11 14.0533V14.25C11 16.2168 9.35764 17.8125 7.33333 17.8125H14.0556H17.7222Z" fill="white"/>
</svg>
