<svg width="416" height="303" viewBox="0 0 416 303" fill="none" xmlns="http://www.w3.org/2000/svg">
<g clip-path="url(#clip0_133_216)">
<g opacity="0.6">
<path d="M41.0999 267.97C28.5199 267.78 -0.670082 271.03 0.539918 276.12C1.68992 280.92 22.1799 283.04 30.0599 283.46C64.7299 285.31 93.8799 286.89 128.04 287.8C132.21 287.91 133.88 291.77 130.59 293.68C127.75 295.33 125.14 298.29 128.45 299.39C144.49 304.72 218.15 302.45 255.54 300.72C300.83 298.62 406.99 293.31 415.02 279.13C417.69 274.41 410.28 270.91 404.06 269.57C389.33 266.41 373.86 265.07 358.48 265.62L41.1099 267.96H41.0999V267.97Z" fill="#B2C8CC"/>
</g>
<path d="M341.27 13.25H76.3298V265.5H341.27V13.25Z" fill="#FFBE60"/>
<path d="M341.27 247.22H76.3298V265.5H341.27V247.22Z" fill="#FFE2BB"/>
<path d="M341.27 13.25H76.3298V91.16H341.27V13.25Z" fill="#F29D2C"/>
<path d="M59.9799 56.2099C59.1699 69.5799 71.0899 80.47 84.7899 80.47C98.4899 80.47 109.6 69.6099 109.6 56.2099C109.6 42.8099 98.4899 31.95 84.7899 31.95C71.0899 31.95 60.7999 42.6999 59.9799 56.2099Z" fill="#DFDFDF"/>
<path d="M134.4 80.47C148.102 80.47 159.21 69.6084 159.21 56.2099C159.21 42.8115 148.102 31.95 134.4 31.95C120.698 31.95 109.59 42.8115 109.59 56.2099C109.59 69.6084 120.698 80.47 134.4 80.47Z" fill="#634048"/>
<path d="M184.01 80.47C197.712 80.47 208.82 69.6084 208.82 56.2099C208.82 42.8115 197.712 31.95 184.01 31.95C170.308 31.95 159.2 42.8115 159.2 56.2099C159.2 69.6084 170.308 80.47 184.01 80.47Z" fill="#DFDFDF"/>
<path d="M233.62 80.47C247.322 80.47 258.43 69.6084 258.43 56.2099C258.43 42.8115 247.322 31.95 233.62 31.95C219.918 31.95 208.81 42.8115 208.81 56.2099C208.81 69.6084 219.918 80.47 233.62 80.47Z" fill="#634048"/>
<path d="M283.24 80.47C296.942 80.47 308.05 69.6084 308.05 56.2099C308.05 42.8115 296.942 31.95 283.24 31.95C269.538 31.95 258.43 42.8115 258.43 56.2099C258.43 69.6084 269.538 80.47 283.24 80.47Z" fill="#DFDFDF"/>
<path d="M332.85 80.47C346.552 80.47 357.66 69.6084 357.66 56.2099C357.66 42.8115 346.552 31.95 332.85 31.95C319.148 31.95 308.04 42.8115 308.04 56.2099C308.04 69.6084 319.148 80.47 332.85 80.47Z" fill="#634048"/>
<path d="M357.65 56.21H59.98L67.19 11.88H352.45L357.65 56.21Z" fill="#744B54"/>
<path d="M59.98 56.21L67.19 11.88H116.37L109.59 56.21H59.98Z" fill="white"/>
<path d="M208.82 56.21V11.88H163.82L159.2 56.21H208.82Z" fill="white"/>
<path d="M258.43 56.21V11.88H303.42L308.04 56.21H258.43Z" fill="white"/>
<path d="M352.7 0H66.6399V14.47H352.7V0Z" fill="#634048"/>
<path d="M352.7 0H66.6399V3.69H352.7V0Z" fill="#744B54"/>
<path d="M341.27 110.13H196.8V220.96H341.27V110.13Z" fill="white"/>
<path d="M179.31 110.13H99.1299V259.56H179.31V110.13Z" fill="white"/>
<path d="M172.63 116.5H105.3V259.56H172.63V116.5Z" fill="#054651"/>
<path d="M341.27 117.44H203.65V214.77H341.27V117.44Z" fill="#054651"/>
<path d="M341.27 220.96H196.8V229.86H341.27V220.96Z" fill="#D87C0E"/>
<path d="M341.27 117.44H210.51V205.18H341.27V117.44Z" fill="#0E5768"/>
<path d="M172.63 116.5H112.95V256.36H172.63V116.5Z" fill="#0E5768"/>
<mask id="mask0_133_216" style="mask-type:luminance" maskUnits="userSpaceOnUse" x="112" y="116" width="61" height="141">
<path d="M172.63 116.5H112.95V256.36H172.63V116.5Z" fill="white"/>
</mask>
<g mask="url(#mask0_133_216)">
<path d="M157.794 97.2917L78.7441 211.029L99.3221 225.331L178.372 111.594L157.794 97.2917Z" fill="#329BAD"/>
<path d="M184.341 117.444L105.292 231.181L110.292 234.657L189.342 120.919L184.341 117.444Z" fill="#329BAD"/>
</g>
<mask id="mask1_133_216" style="mask-type:luminance" maskUnits="userSpaceOnUse" x="210" y="117" width="132" height="89">
<path d="M341.27 117.44H210.51V205.18H341.27V117.44Z" fill="white"/>
</mask>
<g mask="url(#mask1_133_216)">
<path d="M287.654 99.8211L208.605 213.558L229.183 227.861L308.232 114.123L287.654 99.8211Z" fill="#329BAD"/>
<path d="M332.113 99.828L253.063 213.565L258.064 217.041L337.113 103.304L332.113 99.828Z" fill="#329BAD"/>
</g>
<path d="M381.82 259.56H35.78V271.44H381.82V259.56Z" fill="#282F39"/>
<path d="M381.82 259.56H35.78V263.37H381.82V259.56Z" fill="#4D555E"/>
<path d="M332.85 95H300.76V106.25H332.85V95Z" fill="#F29D2C"/>
<path d="M114.04 95.37H81.95V106.62H114.04V95.37Z" fill="#F29D2C"/>
<path d="M287.96 97.34H271.66V104.65H287.96V97.34Z" fill="#F29D2C"/>
<path d="M202.51 234.89H186.21V242.2H202.51V234.89Z" fill="#D87C0E"/>
<path d="M248.47 234.89H232.17V242.2H248.47V234.89Z" fill="#D87C0E"/>
</g>
<defs>
<clipPath id="clip0_133_216">
<rect width="415.08" height="302.71" fill="white" transform="translate(0.5)"/>
</clipPath>
</defs>
</svg>
